<svg width="163" height="38" viewBox="0 0 163 38" fill="none" xmlns="http://www.w3.org/2000/svg">
<g clip-path="url(#clip0_13_560)">
<path d="M19 0C8.50671 0 0 8.50671 0 19C0 29.4933 8.50671 38 19 38C29.4933 38 38 29.4933 38 19C37.9882 8.51165 29.4883 0.0117513 19 0ZM33.7142 9.11375L32.3974 14.7111L25.4601 17.0233L19.6333 12.3627V5.49528L26.2833 2.83547C29.2941 4.19954 31.8664 6.37292 33.7142 9.11375ZM33.8199 28.7186L27.5392 29.7104L24.1192 25.1926L25.8615 18.226L32.7218 15.9397L36.6517 20.6554C36.3839 23.5348 35.4113 26.3041 33.8199 28.7186ZM10.4887 29.7147L4.18006 28.7186C2.58869 26.3034 1.61642 23.5335 1.34893 20.6535L5.27572 15.9379L12.136 18.2241L13.8783 25.1945L10.4887 29.7147ZM1.27223 18.7637C1.30594 15.9385 2.01875 13.1624 3.35036 10.6705L4.37767 15.0404L1.27223 18.7637ZM15.0611 24.7L13.381 17.9727L19 13.4778L24.6202 17.9745L22.9389 24.7H15.0611ZM33.6223 15.038L34.6496 10.668C35.9813 13.1599 36.6941 15.9357 36.7278 18.7613L33.6223 15.038ZM24.5562 2.16286L19 4.38509L13.4141 2.17306C17.0298 0.967936 20.9383 0.964535 24.5562 2.16286ZM11.6864 2.85L18.3667 5.49744V12.3627L12.5399 17.0233L5.60259 14.7111L4.28582 9.11375C6.12738 6.38281 8.68854 4.21501 11.6864 2.85ZM5.2383 30.1681L10.3866 30.9814L13.5001 35.8582C10.2573 34.7931 7.3894 32.818 5.2383 30.1681ZM15.316 36.3458L11.5367 30.4291L14.8833 25.9667H23.1167L26.5112 30.4507L23.2181 36.2222C20.6276 36.8601 17.9263 36.9034 15.3166 36.3489L15.316 36.3458ZM24.9774 35.694L27.6768 30.9699L32.7642 30.1674C30.7204 32.6844 28.0278 34.5952 24.9774 35.694Z" fill="black"/>
</g>
<path d="M64.67 12.04L64.362 13.14C64.1127 13.052 63.8267 12.9713 63.504 12.898C63.1813 12.8247 62.844 12.7587 62.492 12.7C62.14 12.6413 61.7807 12.5973 61.414 12.568C61.062 12.5387 60.732 12.524 60.424 12.524C59.2213 12.524 58.2607 12.7733 57.542 13.272C56.8233 13.7707 56.464 14.4453 56.464 15.296C56.464 15.6773 56.5373 16.022 56.684 16.33C56.8307 16.6233 57.0653 16.9093 57.388 17.188C57.7253 17.452 58.1727 17.716 58.73 17.98C59.2873 18.2293 59.9693 18.4933 60.776 18.772C61.6413 19.0653 62.3673 19.366 62.954 19.674C63.5553 19.9673 64.0393 20.2827 64.406 20.62C64.7727 20.9573 65.0367 21.3387 65.198 21.764C65.3593 22.1893 65.44 22.666 65.44 23.194C65.44 24.0447 65.2127 24.7707 64.758 25.372C64.318 25.9733 63.6727 26.4353 62.822 26.758C61.986 27.066 60.9667 27.22 59.764 27.22C59.3827 27.22 58.95 27.198 58.466 27.154C57.9967 27.11 57.52 27.0513 57.036 26.978C56.5667 26.89 56.112 26.7947 55.672 26.692C55.2467 26.5893 54.88 26.4793 54.572 26.362L54.902 25.24C55.21 25.3573 55.5693 25.4673 55.98 25.57C56.4053 25.6727 56.838 25.7607 57.278 25.834C57.7327 25.9073 58.18 25.966 58.62 26.01C59.06 26.054 59.4633 26.076 59.83 26.076C60.7247 26.076 61.48 25.9733 62.096 25.768C62.7267 25.548 63.2033 25.2327 63.526 24.822C63.8633 24.3967 64.032 23.8907 64.032 23.304C64.032 22.908 63.944 22.556 63.768 22.248C63.6067 21.9253 63.35 21.632 62.998 21.368C62.646 21.104 62.184 20.8473 61.612 20.598C61.04 20.334 60.3433 20.0627 59.522 19.784C58.7007 19.4907 58.004 19.1973 57.432 18.904C56.86 18.596 56.398 18.2733 56.046 17.936C55.694 17.584 55.4373 17.2027 55.276 16.792C55.1147 16.3667 55.034 15.89 55.034 15.362C55.034 14.7753 55.1513 14.24 55.386 13.756C55.6353 13.2573 55.9873 12.832 56.442 12.48C56.9113 12.128 57.476 11.8567 58.136 11.666C58.8107 11.4753 59.5733 11.38 60.424 11.38C60.8933 11.38 61.392 11.4093 61.92 11.468C62.4627 11.5267 62.976 11.6073 63.46 11.71C63.944 11.8127 64.3473 11.9227 64.67 12.04ZM70.6727 27.22C70.0274 27.22 69.4701 27.1027 69.0007 26.868C68.5314 26.6333 68.1647 26.2887 67.9007 25.834C67.6514 25.3793 67.5267 24.8073 67.5267 24.118V15.252H68.8687V23.876C68.8687 24.5653 69.0594 25.108 69.4407 25.504C69.8221 25.8853 70.3941 26.076 71.1567 26.076C71.5674 26.076 71.9634 26.032 72.3447 25.944C72.7261 25.8413 73.1001 25.7093 73.4667 25.548C73.8481 25.372 74.2367 25.1813 74.6327 24.976V15.252H75.9747V24.734C75.9747 25.0713 76.0114 25.3353 76.0847 25.526C76.1727 25.7167 76.2827 25.856 76.4147 25.944C76.5467 26.0173 76.6934 26.054 76.8547 26.054C77.0601 26.054 77.2727 26.01 77.4927 25.922L77.6687 26.912C77.5367 26.9707 77.3974 27.022 77.2507 27.066C77.1187 27.1247 76.9794 27.1613 76.8327 27.176C76.6861 27.2053 76.5394 27.22 76.3927 27.22C76.0261 27.22 75.6961 27.1173 75.4027 26.912C75.1094 26.692 74.9114 26.3693 74.8087 25.944C74.3541 26.1933 73.9067 26.4207 73.4667 26.626C73.0267 26.8167 72.5794 26.9633 72.1247 27.066C71.6701 27.1687 71.1861 27.22 70.6727 27.22ZM79.2572 27V15.252H80.5112V16.286C80.9952 16.022 81.4572 15.802 81.8972 15.626C82.3519 15.4353 82.8139 15.2887 83.2832 15.186C83.7672 15.0833 84.2732 15.032 84.8012 15.032C85.4905 15.032 86.0699 15.1567 86.5392 15.406C87.0232 15.6407 87.3899 15.9927 87.6392 16.462C87.8885 16.9313 88.0132 17.5107 88.0132 18.2V27H86.6712V18.53C86.6712 17.782 86.4732 17.21 86.0772 16.814C85.6959 16.4033 85.1019 16.198 84.2952 16.198C83.8552 16.198 83.4299 16.242 83.0192 16.33C82.6232 16.418 82.2272 16.5427 81.8312 16.704C81.4352 16.8653 81.0319 17.0633 80.6212 17.298V27H79.2572ZM98.3582 27L98.1602 25.9C97.4855 26.3693 96.8402 26.7067 96.2242 26.912C95.6082 27.1173 94.9775 27.22 94.3322 27.22C93.0855 27.22 92.1175 26.7213 91.4282 25.724C90.7389 24.712 90.3942 23.2747 90.3942 21.412C90.3942 19.9307 90.5775 18.7207 90.9442 17.782C91.3109 16.8433 91.8755 16.154 92.6382 15.714C93.4155 15.2593 94.3909 15.032 95.5642 15.032C95.9749 15.032 96.4002 15.054 96.8402 15.098C97.2802 15.142 97.7202 15.2153 98.1602 15.318V10.72H99.5242V27H98.3582ZM98.1602 24.844V16.396C97.6615 16.2787 97.2069 16.198 96.7962 16.154C96.4002 16.0953 96.0335 16.066 95.6962 16.066C94.8015 16.066 94.0609 16.242 93.4742 16.594C92.9022 16.946 92.4769 17.5033 92.1982 18.266C91.9195 19.0287 91.7802 20.048 91.7802 21.324C91.7802 22.3507 91.8975 23.2233 92.1322 23.942C92.3815 24.646 92.7262 25.174 93.1662 25.526C93.6062 25.878 94.1342 26.054 94.7502 26.054C95.1315 26.054 95.4982 26.0173 95.8502 25.944C96.2022 25.856 96.5615 25.724 96.9282 25.548C97.3095 25.372 97.7202 25.1373 98.1602 24.844ZM101.518 24.294C101.518 23.59 101.672 23.018 101.98 22.578C102.288 22.1233 102.743 21.764 103.344 21.5C103.96 21.2213 104.708 21.0087 105.588 20.862C106.483 20.7007 107.51 20.5687 108.668 20.466V18.552C108.668 17.7893 108.434 17.21 107.964 16.814C107.495 16.418 106.791 16.22 105.852 16.22C105.559 16.22 105.229 16.2347 104.862 16.264C104.51 16.2933 104.136 16.3447 103.74 16.418C103.359 16.4913 102.963 16.594 102.552 16.726L102.288 15.604C102.904 15.4133 103.52 15.274 104.136 15.186C104.767 15.0833 105.361 15.032 105.918 15.032C106.813 15.032 107.561 15.164 108.162 15.428C108.764 15.6773 109.218 16.066 109.526 16.594C109.849 17.1073 110.01 17.7527 110.01 18.53V24.69C110.01 25.2033 110.084 25.5553 110.23 25.746C110.392 25.9367 110.597 26.032 110.846 26.032C110.949 26.032 111.052 26.0247 111.154 26.01C111.272 25.9807 111.389 25.944 111.506 25.9L111.682 26.912C111.477 27.0147 111.272 27.088 111.066 27.132C110.861 27.1907 110.648 27.22 110.428 27.22C109.93 27.22 109.541 27.0807 109.262 26.802C108.984 26.5087 108.815 26.0687 108.756 25.482C108.404 25.7753 108.008 26.054 107.568 26.318C107.128 26.582 106.644 26.802 106.116 26.978C105.588 27.1393 105.016 27.22 104.4 27.22C103.96 27.22 103.564 27.154 103.212 27.022C102.86 26.9047 102.56 26.7287 102.31 26.494C102.061 26.2447 101.863 25.9367 101.716 25.57C101.584 25.2033 101.518 24.778 101.518 24.294ZM102.882 24.162C102.882 24.8367 103.058 25.35 103.41 25.702C103.762 26.054 104.232 26.23 104.818 26.23C105.273 26.23 105.728 26.1567 106.182 26.01C106.637 25.8633 107.077 25.6653 107.502 25.416C107.928 25.152 108.316 24.8587 108.668 24.536V21.324C107.818 21.3973 107.04 21.4927 106.336 21.61C105.632 21.7127 105.016 21.8667 104.488 22.072C103.975 22.2627 103.579 22.534 103.3 22.886C103.022 23.2233 102.882 23.6487 102.882 24.162ZM114.821 31.576L116.317 27H116.075L111.455 15.296L112.885 15.164L116.867 25.68L120.233 15.164L121.597 15.274L116.185 31.686L114.821 31.576ZM129.47 27V11.622C130.233 11.5633 130.9 11.5193 131.472 11.49C132.059 11.446 132.587 11.4167 133.056 11.402C133.54 11.3873 134.002 11.38 134.442 11.38C135.674 11.38 136.664 11.512 137.412 11.776C138.16 12.04 138.703 12.4507 139.04 13.008C139.392 13.5507 139.568 14.2767 139.568 15.186C139.568 16.0807 139.356 16.858 138.93 17.518C138.505 18.1633 137.926 18.6107 137.192 18.86V18.882C138.175 19.0873 138.945 19.5347 139.502 20.224C140.06 20.8987 140.338 21.7567 140.338 22.798C140.338 23.5753 140.228 24.2427 140.008 24.8C139.788 25.3573 139.451 25.8193 138.996 26.186C138.556 26.538 137.97 26.802 137.236 26.978C136.503 27.1393 135.616 27.22 134.574 27.22C134.237 27.22 133.914 27.2127 133.606 27.198C133.313 27.198 133.02 27.1907 132.726 27.176C132.448 27.176 132.147 27.1687 131.824 27.154C131.516 27.1393 131.164 27.1173 130.768 27.088C130.387 27.0733 129.954 27.044 129.47 27ZM130.856 18.574H135.322C135.909 18.574 136.422 18.442 136.862 18.178C137.302 17.914 137.64 17.5547 137.874 17.1C138.124 16.6307 138.248 16.0953 138.248 15.494C138.248 14.8047 138.116 14.24 137.852 13.8C137.588 13.36 137.163 13.0447 136.576 12.854C136.004 12.6487 135.234 12.546 134.266 12.546C134.017 12.546 133.79 12.546 133.584 12.546C133.394 12.546 133.21 12.5533 133.034 12.568C132.873 12.568 132.69 12.5753 132.484 12.59C132.294 12.59 132.066 12.5973 131.802 12.612C131.538 12.6267 131.223 12.6487 130.856 12.678V18.574ZM130.856 25.9C131.34 25.9293 131.758 25.9587 132.11 25.988C132.462 26.0027 132.77 26.0173 133.034 26.032C133.298 26.032 133.54 26.0393 133.76 26.054C133.995 26.054 134.23 26.054 134.464 26.054C135.55 26.054 136.415 25.944 137.06 25.724C137.72 25.504 138.19 25.152 138.468 24.668C138.762 24.184 138.908 23.546 138.908 22.754C138.908 21.786 138.608 21.038 138.006 20.51C137.42 19.9673 136.562 19.696 135.432 19.696H130.856V25.9ZM141.694 24.294C141.694 23.59 141.848 23.018 142.156 22.578C142.464 22.1233 142.919 21.764 143.52 21.5C144.136 21.2213 144.884 21.0087 145.764 20.862C146.659 20.7007 147.686 20.5687 148.844 20.466V18.552C148.844 17.7893 148.61 17.21 148.14 16.814C147.671 16.418 146.967 16.22 146.028 16.22C145.735 16.22 145.405 16.2347 145.038 16.264C144.686 16.2933 144.312 16.3447 143.916 16.418C143.535 16.4913 143.139 16.594 142.728 16.726L142.464 15.604C143.08 15.4133 143.696 15.274 144.312 15.186C144.943 15.0833 145.537 15.032 146.094 15.032C146.989 15.032 147.737 15.164 148.338 15.428C148.94 15.6773 149.394 16.066 149.702 16.594C150.025 17.1073 150.186 17.7527 150.186 18.53V24.69C150.186 25.2033 150.26 25.5553 150.406 25.746C150.568 25.9367 150.773 26.032 151.022 26.032C151.125 26.032 151.228 26.0247 151.33 26.01C151.448 25.9807 151.565 25.944 151.682 25.9L151.858 26.912C151.653 27.0147 151.448 27.088 151.242 27.132C151.037 27.1907 150.824 27.22 150.604 27.22C150.106 27.22 149.717 27.0807 149.438 26.802C149.16 26.5087 148.991 26.0687 148.932 25.482C148.58 25.7753 148.184 26.054 147.744 26.318C147.304 26.582 146.82 26.802 146.292 26.978C145.764 27.1393 145.192 27.22 144.576 27.22C144.136 27.22 143.74 27.154 143.388 27.022C143.036 26.9047 142.736 26.7287 142.486 26.494C142.237 26.2447 142.039 25.9367 141.892 25.57C141.76 25.2033 141.694 24.778 141.694 24.294ZM143.058 24.162C143.058 24.8367 143.234 25.35 143.586 25.702C143.938 26.054 144.408 26.23 144.994 26.23C145.449 26.23 145.904 26.1567 146.358 26.01C146.813 25.8633 147.253 25.6653 147.678 25.416C148.104 25.152 148.492 24.8587 148.844 24.536V21.324C147.994 21.3973 147.216 21.4927 146.512 21.61C145.808 21.7127 145.192 21.8667 144.664 22.072C144.151 22.2627 143.755 22.534 143.476 22.886C143.198 23.2233 143.058 23.6487 143.058 24.162ZM154.677 10.72V24.008C154.677 24.5653 154.736 24.9907 154.853 25.284C154.985 25.5773 155.147 25.7753 155.337 25.878C155.543 25.966 155.77 26.01 156.019 26.01C156.195 26.01 156.379 25.9953 156.569 25.966C156.76 25.9367 156.958 25.8853 157.163 25.812L157.317 26.912C157.083 27 156.826 27.0733 156.547 27.132C156.283 27.1907 156.005 27.22 155.711 27.22C155.242 27.22 154.824 27.132 154.457 26.956C154.105 26.78 153.827 26.472 153.621 26.032C153.431 25.5773 153.335 24.9393 153.335 24.118V10.72H154.677ZM160.005 10.72V24.008C160.005 24.5653 160.064 24.9907 160.181 25.284C160.313 25.5773 160.475 25.7753 160.665 25.878C160.871 25.966 161.098 26.01 161.347 26.01C161.523 26.01 161.707 25.9953 161.897 25.966C162.088 25.9367 162.286 25.8853 162.491 25.812L162.645 26.912C162.411 27 162.154 27.0733 161.875 27.132C161.611 27.1907 161.333 27.22 161.039 27.22C160.57 27.22 160.152 27.132 159.785 26.956C159.433 26.78 159.155 26.472 158.949 26.032C158.759 25.5773 158.663 24.9393 158.663 24.118V10.72H160.005Z" fill="#111817"/>
<defs>
<clipPath id="clip0_13_560">
<rect width="38" height="38" fill="white"/>
</clipPath>
</defs>
</svg>
